<svg xmlns="http://www.w3.org/2000/svg" viewBox="0 0 330 68">
  <path fill="#000" fill-rule="evenodd" d="M64.606 34.585c0-6.005-3.44-9.008-10.32-9.008h-4.43v17.98h4.916c3.178 0 5.611-.758 7.301-2.272 1.688-1.513 2.533-3.747 2.533-6.7m.676-9.665c2.527 2.29 3.791 5.474 3.791 9.553 0 4.08-1.227 7.306-3.678 9.683-2.453 2.377-6.206 3.566-11.26 3.566h-8.709V21.485h9.01c4.703 0 8.318 1.145 10.846 3.435M78.85 42.448c1.189 1.214 2.697 1.82 4.523 1.82 1.826 0 3.334-.606 4.522-1.82 1.189-1.214 1.784-2.783 1.784-4.71 0-1.928-.596-3.497-1.784-4.71-1.188-1.215-2.695-1.82-4.522-1.82-1.827 0-3.335.605-4.523 1.82-1.188 1.213-1.782 2.782-1.782 4.71 0 1.927.594 3.496 1.782 4.71m12.03 2.59c-2.002 1.99-4.504 2.983-7.507 2.983-3.002 0-5.505-.994-7.507-2.983-2.001-1.989-3.002-4.423-3.002-7.3 0-2.878 1-5.31 3.002-7.3 2.002-1.99 4.505-2.985 7.507-2.985s5.504.995 7.506 2.984c2.002 1.99 3.003 4.423 3.003 7.3 0 2.878-1 5.312-3.003 7.301M107.507 48.022c-2.777 0-5.167-.943-7.169-2.834-2.002-1.888-3.003-4.36-3.003-7.412 0-3.053 1.045-5.536 3.135-7.45 2.089-1.915 4.635-2.872 7.638-2.872 3.002 0 5.542 1.039 7.62 3.116l-2.479 3.04c-1.725-1.502-3.465-2.252-5.217-2.252-1.752 0-3.271.582-4.56 1.745-1.288 1.163-1.933 2.664-1.933 4.504 0 1.839.638 3.396 1.914 4.673 1.277 1.276 2.847 1.914 4.711 1.914 1.864 0 3.622-.85 5.274-2.552l2.476 2.702c-2.428 2.452-5.229 3.678-8.407 3.678M134.23 38.564v-10.81h4.204v19.968h-4.204v-3.64a7.474 7.474 0 01-2.796 2.889 7.443 7.443 0 01-3.847 1.05c-2.252 0-4.072-.686-5.461-2.062-1.389-1.376-2.083-3.366-2.083-5.97V27.755h4.204v10.96c0 3.678 1.526 5.517 4.579 5.517 1.451 0 2.714-.48 3.791-1.444 1.075-.963 1.613-2.37 1.613-4.223M148.719 36.912v10.81h-4.204V27.754h4.204v3.64c.601-1.225 1.507-2.189 2.721-2.889a7.723 7.723 0 013.923-1.052c3.152 0 5.292 1.302 6.418 3.904 1.976-2.602 4.441-3.904 7.393-3.904 2.253 0 4.073.69 5.462 2.064 1.389 1.377 2.082 3.367 2.082 5.968v12.237h-4.203v-10.96c0-3.678-1.526-5.518-4.579-5.518-1.427 0-2.671.457-3.735 1.37-1.064.914-1.62 2.246-1.669 3.998v11.11h-4.205v-10.96c0-1.902-.337-3.297-1.013-4.185-.675-.889-1.74-1.333-3.19-1.333-1.452 0-2.716.482-3.791 1.445-1.077.964-1.614 2.371-1.614 4.223M185.501 36.274h11.447c0-1.676-.525-2.965-1.576-3.865-1.051-.901-2.346-1.352-3.884-1.352-1.54 0-2.923.47-4.147 1.408-1.228.939-1.84 2.208-1.84 3.809zm15.651 3.304h-15.651c.1 1.45.763 2.62 1.99 3.508 1.225.889 2.627 1.334 4.203 1.334 2.501 0 4.404-.79 5.705-2.366l2.402 2.628c-2.152 2.228-4.954 3.34-8.407 3.34-2.803 0-5.186-.932-7.151-2.796-1.965-1.864-2.946-4.366-2.946-7.507 0-3.14 1.001-5.635 3.003-7.488 2.002-1.851 4.36-2.777 7.075-2.777 2.714 0 5.022.82 6.925 2.459 1.901 1.639 2.852 3.897 2.852 6.775v2.89zM209.973 36.912v10.81h-4.203V27.754h4.203v3.64a7.48 7.48 0 012.796-2.889 7.452 7.452 0 013.848-1.052c2.252 0 4.072.69 5.46 2.064 1.389 1.377 2.084 3.367 2.084 5.968v12.237h-4.204v-10.96c0-3.678-1.526-5.518-4.579-5.518-1.451 0-2.716.482-3.791 1.445-1.077.964-1.614 2.371-1.614 4.223M234.933 31.132v10.134c0 .951.25 1.708.751 2.271.5.563 1.201.844 2.102.844.9 0 1.763-.437 2.589-1.313l1.728 2.965c-1.478 1.327-3.11 1.989-4.899 1.989-1.789 0-3.316-.619-4.58-1.858-1.263-1.238-1.894-2.908-1.894-5.011V31.132h-2.516v-3.378h2.516v-6.268h4.203v6.268h5.255v3.378h-5.255zM260.509 24.94c-1.29 0-2.347.262-3.172.788-.825.525-1.239 1.319-1.239 2.383s.414 1.877 1.239 2.439c.825.564 2.583 1.17 5.274 1.82 2.689.652 4.716 1.565 6.08 2.74 1.363 1.178 2.046 2.91 2.046 5.199 0 2.29-.864 4.148-2.589 5.574-1.728 1.426-3.993 2.139-6.794 2.139-4.105 0-7.745-1.413-10.923-4.241l2.777-3.34c2.653 2.303 5.405 3.453 8.258 3.453 1.426 0 2.558-.307 3.397-.92.837-.612 1.257-1.427 1.257-2.44s-.394-1.801-1.182-2.365c-.788-.562-2.146-1.075-4.073-1.538-1.927-.462-3.39-.887-4.391-1.276a9.886 9.886 0 01-2.665-1.52c-1.552-1.176-2.327-2.978-2.327-5.405s.882-4.298 2.646-5.611c1.764-1.314 3.946-1.971 6.549-1.971 1.677 0 3.341.276 4.992.826 1.652.55 3.078 1.327 4.279 2.328l-2.365 3.339c-.775-.7-1.826-1.276-3.152-1.726-1.326-.45-2.634-.675-3.922-.675M275.616 47.722h4.203V27.754h-4.203v19.968zm.262-23.946c-.525-.526-.788-1.151-.788-1.877s.263-1.351.788-1.877c.526-.526 1.151-.788 1.877-.788.725 0 1.351.262 1.877.788.525.526.789 1.151.789 1.877s-.264 1.351-.789 1.877c-.526.525-1.152.788-1.877.788-.726 0-1.351-.263-1.877-.788zM288.789 36.969c0 1.639.507 3.053 1.521 4.241 1.012 1.189 2.375 1.782 4.09 1.782 1.714 0 3.103-.575 4.167-1.726 1.063-1.151 1.595-2.583 1.595-4.297 0-1.714-.539-3.165-1.614-4.354-1.076-1.188-2.465-1.783-4.166-1.783-1.702 0-3.06.614-4.072 1.839-1.014 1.227-1.521 2.659-1.521 4.298zm15.576-9.215v17.415c0 3.529-.956 6.175-2.87 7.94-1.915 1.763-4.373 2.645-7.376 2.645s-5.718-.938-8.144-2.815l1.989-3.19c1.951 1.476 3.922 2.214 5.911 2.214 1.989 0 3.565-.513 4.729-1.539 1.164-1.026 1.746-2.665 1.746-4.917v-2.552a7.16 7.16 0 01-2.684 2.815c-1.164.701-2.472 1.052-3.923 1.052-2.651 0-4.829-.926-6.53-2.779-1.702-1.85-2.553-4.153-2.553-6.905 0-2.753.851-5.055 2.553-6.907 1.701-1.851 3.872-2.778 6.512-2.778 2.64 0 4.785 1.089 6.437 3.266v-2.965h4.203zM314.649 36.912v10.81h-4.203V27.754h4.203v3.64a7.49 7.49 0 012.797-2.889 7.448 7.448 0 013.847-1.052c2.252 0 4.072.69 5.461 2.064 1.388 1.377 2.083 3.367 2.083 5.968v12.237h-4.204v-10.96c0-3.678-1.526-5.518-4.578-5.518-1.452 0-2.717.482-3.791 1.445-1.077.964-1.615 2.371-1.615 4.223" clip-rule="evenodd"/>
  <path fill="#4FE799" fill-rule="evenodd" d="M3.317 47.535c-.303-1.178-.538-3.158-.69-4.714l1.966 1.127a1.219 1.219 0 001.69-1.61c-1.46-2.86-3.083-6.368-3.259-7.246a25.525 25.525 0 013.588-8.595c.32-.492.81-1.195 1.25-1.818l1.821 2.593c.318.453.901.634 1.42.443.525-.189.843-.709.788-1.26-.284-2.929-.445-6.485-.252-7.358 1.523-1.73 3.445-3.653 5.306-5.514 1.626-1.626 3.162-3.163 4.163-4.312a71.427 71.427 0 004.945-5.92c1.157 1.973 3.141 5.686 4.16 10.008.296 1.145.516 2.326.665 3.517l-4.465 5.86c0 .001 0 .003-.003.004a1.28 1.28 0 00-.122.2c-.02.043-.034.087-.05.132-.01.03-.025.061-.034.092-.01.04-.014.081-.02.122-.006.037-.014.074-.017.112-.003.041.002.082.004.124.001.037 0 .075.004.113.011.08.03.157.055.232v.004c.007.02.018.035.025.055.023.054.044.11.075.16.023.041.052.077.081.114.02.025.036.054.057.08.053.06.112.112.174.16l.002.003c.078.06.165.106.256.146l.077.03c.07.023.14.04.21.052a1.182 1.182 0 00.359.01c.01 0 .017-.005.026-.006.07-.012.14-.026.207-.049l3.106-1.07a25.473 25.473 0 01-3.967 10.84 64.92 64.92 0 01-1.997 2.881c-.659.48-4.193 2.2-7.198 3.568a1.216 1.216 0 00.113 2.26l1.556.533c-1.916 1.813-5.204 4.978-6.958 6.985a40.64 40.64 0 00-2.704 3.243l.675-3.357a62.305 62.305 0 017.476-20.818l4.022-6.978a1.217 1.217 0 10-2.11-1.216l-4.022 6.978A64.682 64.682 0 008.01 50.066L6.761 56.27c-1.139-2.1-2.616-5.224-3.444-8.735m2.676 19.91a1.215 1.215 0 001.405-.996l1.066-6.257c.135-.194.277-.42.452-.714.812-1.357 2.504-4.18 5.326-7.226 2.46-2.81 8.23-8.165 8.29-8.219a1.219 1.219 0 00-.437-2.046l-.6-.205c4.796-2.269 5.151-2.742 5.324-2.973a68.02 68.02 0 002.14-3.085c2.726-4.193 4.25-8.858 4.524-13.86a1.176 1.176 0 00-.01-.245c-.006-.04-.018-.079-.028-.119-.009-.034-.014-.07-.025-.105l-.003-.006a1.116 1.116 0 00-.078-.168c-.008-.017-.014-.037-.024-.052-.024-.04-.055-.076-.083-.113a1.161 1.161 0 00-.16-.174c-.025-.02-.044-.044-.069-.063-.022-.016-.047-.028-.07-.044a1.19 1.19 0 00-.214-.11c-.045-.018-.09-.038-.137-.05-.017-.005-.036-.006-.053-.01a1.313 1.313 0 00-.188-.029h-.005c-.024-.002-.046.003-.07.003a.932.932 0 00-.167.008c-.048.006-.092.02-.136.032-.03.008-.06.011-.09.021l-.017.005-1.068.368 2.33-3.056c.018-.026.031-.054.048-.08l.04-.064c.056-.1.1-.206.126-.314l.006-.039c.023-.114.03-.23.02-.345 0-.009.002-.017.001-.026 0-.01-.003-.02-.004-.03v-.005a30.303 30.303 0 00-.776-4.279c-1.32-5.596-4.132-10.197-5.056-11.71-.075-.124-.136-.22-.177-.29l-.01-.027c-.018-.042-.042-.077-.063-.115L27.245.58a1.26 1.26 0 00-.106-.143l-.038-.046a1.163 1.163 0 00-.12-.112c-.019-.015-.039-.032-.06-.047a1.118 1.118 0 00-.124-.077.74.74 0 00-.084-.044 1.452 1.452 0 00-.125-.047c-.034-.01-.066-.022-.1-.03a1.015 1.015 0 00-.137-.022c-.025-.003-.049-.01-.074-.012l-.034.001-.075.002c-.644.005-.948.398-1.747 1.47A71.395 71.395 0 0119.3 7.64c-.973 1.117-2.48 2.623-4.077 4.221-1.934 1.935-3.935 3.936-5.526 5.758-.25.284-.707.803-.553 4.646l-.277-.394a1.222 1.222 0 00-.988-.519 1.226 1.226 0 00-.996.505c-.063.088-1.576 2.18-2.312 3.312a27.974 27.974 0 00-3.958 9.555c-.067.318-.209.98 1.734 5.13l-.523-.3a1.216 1.216 0 00-1.82 1.138c.014.206.35 5.085.951 7.425 1.31 5.553 4.11 10.16 5.03 11.673.023.04.042.068.062.102L5 66.041c-.116.661.331 1.29.994 1.403M36.116 67.467h-6.159a1.253 1.253 0 110-2.507h6.16a1.254 1.254 0 110 2.507M48.227 67.467h-6.16a1.253 1.253 0 110-2.507h6.16a1.253 1.253 0 010 2.507" clip-rule="evenodd"/>
  <path fill="#4FE799" fill-rule="evenodd" d="M25.315 67.467h-19.1a1.253 1.253 0 010-2.507h19.1a1.254 1.254 0 110 2.507" clip-rule="evenodd"/>
</svg>
