<svg xmlns="http://www.w3.org/2000/svg" viewBox="0 0 24 24">
  <path fill="#FFF" d="M18.798 18.116c-.532.294-1.281.719-1.722 1.016a9.82 9.82 0 00-.222.145l.032-.065a13.68 13.68 0 012.812-4.076l1.3-1.304a.428.428 0 00-.017-.627.486.486 0 00-.66.016l-1.3 1.305a14.535 14.535 0 00-2.988 4.326l-.407.833a7.034 7.034 0 01-.18-1.554v-.003a5.443 5.443 0 01.053-.7l.13.116a.488.488 0 00.554.06.438.438 0 00.22-.487c-.182-.714-.332-1.447-.342-1.662a5.564 5.564 0 011.42-1.755l.179.43a.47.47 0 00.487.277.455.455 0 00.41-.38c.093-.638.233-1.314.312-1.52.428-.283.949-.587 1.461-.886a23.75 23.75 0 001.192-.722c.534-.337.942-.632 1.256-.872.214.737.32 1.44.318 2.093.004.229-.007.466-.032.706l-1.283.994-.01.008a.424.424 0 00-.086.096l-.02.03a.362.362 0 00-.02.043.277.277 0 00-.027.085l-.006.035a.384.384 0 00-.003.057l.006.054a.456.456 0 00.034.113l.014.03a.428.428 0 00.04.061l.012.013.001.002.015.016a.48.48 0 00.167.11l.025.01a.48.48 0 00.108.023h.021a.457.457 0 00.069 0l.47-.043a5.53 5.53 0 01-1.344 1.822c-.174.156-.36.314-.582.496-.197.064-.986.233-1.78.38a.453.453 0 00-.37.353l.283.502zm4.71-8.86l-.02-.057a.413.413 0 00-.011-.042l-.006-.02a.436.436 0 00-.028-.063l-.009-.016a.592.592 0 00-.034-.05l-.018-.021a.427.427 0 00-.108-.088c-.011-.007-.023-.014-.037-.02-.013-.007-.027-.012-.043-.018l-.068-.02c-.236-.052-.387.067-.636.263-.264.209-.756.597-1.496 1.064-.276.187-.697.432-1.155.7-.549.32-1.117.65-1.583.964-.117.078-.233.198-.37.726a.49.49 0 00-.524.063c-.147.12-.51.418-.71.598a6.43 6.43 0 00-1.466 1.918c-.044.087-.108.214.026.94a.473.473 0 00-.195.021.451.451 0 00-.313.351c-.033.191-.2 1.17-.192 1.684-.005 1.264.366 2.397.506 2.812l-.55 1.22a.42.42 0 00-.005.339c.047.11.135.196.25.243.082.033.17.044.257.03a.461.461 0 00.356-.263l.57-1.268c.036-.031.075-.068.121-.113a9.543 9.543 0 011.587-1.27c.701-.472 2.31-1.333 2.326-1.342a.443.443 0 00.238-.375.426.426 0 00-.054-.22c.936-.197 1.034-.274 1.11-.333.26-.21.47-.389.665-.564a6.361 6.361 0 001.84-2.847.47.47 0 00.02-.131v-.014l-.002-.027a.431.431 0 00-.01-.06l-.008-.028a.436.436 0 00-.064-.122l-.02-.026a.527.527 0 00-.139-.11l-.017-.007a.532.532 0 01-.012-.006l.323-.25.047-.044a.448.448 0 00.119-.227l.007-.05c.043-.324.062-.65.056-.965.006-1.31-.39-2.474-.52-2.858z"/>
  <path fill="#4FE799" d="M13.91 2.145l4.37 4.37h-4.37v-4.37zm-.251 17.903H4.324V1.324h8.236v5.853c0 .37.292.662.662.662h5.8V9.96c.412-.252.8-.49 1.033-.656l.014-.01.014-.01c.112-.074.216-.146.316-.216V6.674L13.7 0H4.245C3.556 0 3 .61 3 1.35v18.724c0 .741.556 1.35 1.245 1.35h9.386l.232-.54c-.081-.284-.147-.561-.204-.836z"/>
</svg>
