<svg xmlns="http://www.w3.org/2000/svg" xmlns:xlink="http://www.w3.org/1999/xlink" viewBox="0 0 24 24">
  <defs>
    <path id="a" d="M0 .158h18.124v22.317H0z"/>
  </defs>
  <g fill="none" fill-rule="evenodd">
    <g transform="translate(2 .118)">
      <mask id="b" fill="#fff">
        <use xlink:href="#a"/>
      </mask>
      <path fill="#4FE799" d="M11.366 2.392l4.551 4.552h-4.551V2.392zm-1.71 19.022a.616.616 0 00-.201-.295l-.148-.078H1.379V1.537h8.58v6.097c0 .386.303.69.69.69h6.04v2.406a.68.68 0 00.3.058l.47-.115a1.6 1.6 0 01.665-.02V7.11h-.055L11.173.213l-.028.027V.158H1.297C.579.158 0 .792 0 1.565v19.503c0 .773.58 1.407 1.297 1.407h8.61a1.607 1.607 0 01-.191-.583l-.06-.478z" mask="url(#b)"/>
    </g>
    <path fill="#FFF" d="M17.18 10.992a.76.76 0 00-.503.184l-.363.321h-.001a1.01 1.01 0 01-.167.117c-.015.007-.028.015-.042.023a1.405 1.405 0 01-.197.085l-.03.01c-.064.02-.129.036-.195.049l-.044.009a1.464 1.464 0 01-.214.018l-.017.002c-.008 0-.014-.003-.022-.003a1.032 1.032 0 01-.227-.025l-.47-.115a.698.698 0 00-.155-.019h-.012a.711.711 0 00-.08.005c-.01 0-.02 0-.03.002a.788.788 0 00-.124.029l-.03.011a.792.792 0 00-.088.038c-.014.006-.026.014-.04.022a.782.782 0 00-.167.128l-.033.035a.799.799 0 00-.053.069l-.024.034a.697.697 0 00-.057.115l-.172.451a1.238 1.238 0 01-.144.257 1.571 1.571 0 01-.612.488.998.998 0 01-.136.045l-.292.073-.177.043c-.029.008-.056.02-.083.03a.74.74 0 00-.355.282.802.802 0 00-.114.247.72.72 0 00-.02.272l.057.48a.97.97 0 01.006.143c-.008.246-.1.526-.24.744-.055.088-.119.165-.188.226l-.362.32a.773.773 0 00-.248.615.74.74 0 00.127.386l.275.399c.078.114.137.26.172.417.023.104.036.213.038.32.004.16-.018.315-.067.445l-.171.453a.716.716 0 00-.045.269.808.808 0 00.287.596.671.671 0 00.115.077l.429.225c.04.022.08.047.12.077a1.526 1.526 0 01.527.763.945.945 0 01.03.14l.058.482c.006.046.016.09.03.134a.802.802 0 00.457.48.716.716 0 00.267.053h.484c.042 0 .086.004.13.01.025.004.05.01.074.015.03.006.057.011.087.019a1.588 1.588 0 01.672.398.957.957 0 01.091.11l.276.4a.702.702 0 00.113.124l.037.03a.787.787 0 00.105.068l.04.022c.05.023.102.043.155.056l.021.003a.82.82 0 00.145.017l.022.002c.01 0 .019-.003.028-.003a.74.74 0 00.113-.013c.016-.003.032-.005.048-.01a.707.707 0 00.15-.055l.43-.224c.082-.044.176-.076.278-.097a1.54 1.54 0 01.635 0c.101.021.196.053.278.097l.428.224a.711.711 0 00.151.056l.048.009a.74.74 0 00.113.013c.01 0 .02.003.029.003l.022-.002a.817.817 0 00.144-.017l.021-.003a.812.812 0 00.155-.056l.04-.022a.808.808 0 00.105-.068l.038-.03a.702.702 0 00.112-.123l.277-.4a.956.956 0 01.09-.111c.17-.18.424-.328.673-.398.1-.028.2-.044.292-.044h.483a.72.72 0 00.268-.053.801.801 0 00.457-.48.682.682 0 00.03-.134l.06-.482a.98.98 0 01.028-.14 1.59 1.59 0 01.302-.55c.069-.082.145-.155.224-.214a.96.96 0 01.121-.076l.428-.225a.764.764 0 00.291-.283.807.807 0 00.111-.39.712.712 0 00-.046-.269l-.17-.453a1.101 1.101 0 01-.062-.288 1.62 1.62 0 01.034-.478c.034-.156.093-.302.171-.416l.275-.4a.712.712 0 00.108-.25.802.802 0 00.013-.267.762.762 0 00-.243-.482l-.362-.32a1.104 1.104 0 01-.189-.227 1.581 1.581 0 01-.225-.593 1.093 1.093 0 01-.008-.294l.058-.48a.694.694 0 00-.02-.272.81.81 0 00-.423-.512.71.71 0 00-.13-.047l-.208-.051-.261-.065a.973.973 0 01-.136-.046 1.339 1.339 0 01-.27-.152 1.553 1.553 0 01-.342-.335 1.1 1.1 0 01-.143-.257l-.173-.451a.657.657 0 00-.057-.115c-.007-.012-.016-.023-.024-.034a.825.825 0 00-.052-.07l-.033-.034a.854.854 0 00-.168-.128l-.04-.022c-.021-.01-.044-.02-.067-.028l-.022-.01-.028-.01a.792.792 0 00-.124-.03c-.01-.001-.02 0-.03-.002a.75.75 0 00-.082-.004h-.011a.697.697 0 00-.155.018l-.47.115c-.07.017-.147.024-.226.025-.008 0-.015.003-.023.003l-.016-.002a1.496 1.496 0 01-.247-.024l-.012-.003a1.593 1.593 0 01-.194-.05l-.03-.009a1.41 1.41 0 01-.198-.085l-.041-.024a1.002 1.002 0 01-.168-.116l-.364-.32a.76.76 0 00-.503-.185m0 1.212l.136.12a2.125 2.125 0 00.428.29 2.537 2.537 0 00.676.24l.023.007.06.01.044.008c.103.016.207.027.308.03l.027.004h.071c.033 0 .066-.001.1-.004a2.05 2.05 0 00.411-.055l.178-.043.065.17c.068.178.165.353.289.52a2.664 2.664 0 001.073.85c.096.04.195.072.295.097l.175.044-.02.178c-.024.19-.02.39.012.597.055.355.192.718.387 1.02a2.2 2.2 0 00.385.456l.135.119-.103.149a2.284 2.284 0 00-.34.801 2.686 2.686 0 00-.055.816c.018.207.061.402.128.58l.064.17-.159.085c-.089.047-.177.102-.262.164a2.471 2.471 0 00-.576.603 2.566 2.566 0 00-.358.752 2.07 2.07 0 00-.06.301l-.023.181h-.185c-.19 0-.387.03-.587.086a2.648 2.648 0 00-1.176.703 2.11 2.11 0 00-.195.24l-.103.15-.159-.083a2.169 2.169 0 00-.562-.2 2.623 2.623 0 00-1.093 0c-.204.044-.393.11-.56.199l-.161.084-.105-.151a2.061 2.061 0 00-.195-.24 2.695 2.695 0 00-1.175-.702 2.128 2.128 0 00-.148-.035l-.021-.004a1.864 1.864 0 00-.421-.047h-.18l-.022-.181a2.08 2.08 0 00-.14-.531 2.648 2.648 0 00-.855-1.124 2.086 2.086 0 00-.263-.166l-.16-.084.065-.17a2.28 2.28 0 00.138-.857 2.727 2.727 0 00-.066-.539 2.284 2.284 0 00-.34-.802l-.102-.148.135-.12c.143-.127.272-.28.384-.455.25-.388.4-.864.414-1.306a2.07 2.07 0 00-.013-.308l-.022-.181.177-.044c.098-.024.196-.057.293-.097a2.664 2.664 0 001.074-.85 2.337 2.337 0 00.29-.52l.064-.17.176.043c.12.03.246.047.386.054l.034.005h.092c.025 0 .05 0 .076-.002a2.591 2.591 0 00.717-.124 2.537 2.537 0 00.415-.172l.08-.045c.136-.078.25-.158.35-.246l.135-.12"/>
    <path fill="#FFF" d="M20.381 16.255a.642.642 0 01-.177.332l-.08.08L18.69 18.1 16.992 19.8a.644.644 0 01-.908 0l-1.928-1.927a.63.63 0 01-.177-.332.641.641 0 01.177-.577.642.642 0 01.909 0l1.473 1.473 2.152-2.152.606-.606a.64.64 0 01.454-.188h.012a.64.64 0 01.442.188.641.641 0 01.177.577"/>
  </g>
</svg>
